<?xml version="1.0" encoding="UTF-8" standalone="no"?>
<svg
   enable-background="new 0 0 24 24"
   height="18.262501"
   viewBox="0 0 18.262501 18.262501"
   width="18.262501"
   fill="#000000"
   version="1.1"
   id="svg14"
   sodipodi:docname="icon.svg"
   inkscape:version="1.2 (dc2aedaf03, 2022-05-15)"
   xmlns:inkscape="http://www.inkscape.org/namespaces/inkscape"
   xmlns:sodipodi="http://sodipodi.sourceforge.net/DTD/sodipodi-0.dtd"
   xmlns="http://www.w3.org/2000/svg"
   xmlns:svg="http://www.w3.org/2000/svg">
  <defs
     id="defs18" />
  <sodipodi:namedview
     id="namedview16"
     pagecolor="#505050"
     bordercolor="#eeeeee"
     borderopacity="1"
     inkscape:showpageshadow="0"
     inkscape:pageopacity="0"
     inkscape:pagecheckerboard="0"
     inkscape:deskcolor="#505050"
     showgrid="false"
     inkscape:zoom="9.8333333"
     inkscape:cx="8.7457627"
     inkscape:cy="9.2542373"
     inkscape:window-width="1366"
     inkscape:window-height="715"
     inkscape:window-x="0"
     inkscape:window-y="24"
     inkscape:window-maximized="1"
     inkscape:current-layer="svg14" />
  <g
     id="g4"
     transform="translate(-3,-2.7375)">
    <rect
       fill="none"
       height="24"
       width="24"
       id="rect2"
       x="0"
       y="0" />
  </g>
  <g
     id="g12"
     style="fill:#ff00ff"
     transform="translate(-3,-2.7375)">
    <g
       id="g6"
       style="fill:#ff00ff" />
    <g
       id="g10"
       style="fill:#ff00ff">
      <path
         d="m 20.97,7.27 c 0.39,-0.39 0.39,-1.02 0,-1.41 L 18.14,3.03 c -0.39,-0.39 -1.02,-0.39 -1.41,0 L 12.24,7.52 8.35,3.63 C 7.57,2.85 6.3,2.85 5.52,3.63 l -1.9,1.9 c -0.78,0.78 -0.78,2.05 0,2.83 L 7.51,12.25 3,16.76 V 21 h 4.24 l 4.52,-4.52 3.89,3.89 c 0.95,0.95 2.23,0.6 2.83,0 l 1.9,-1.9 c 0.78,-0.78 0.78,-2.05 0,-2.83 L 16.49,11.75 Z M 5.04,6.94 6.93,5.04 c 0,0 0,0 0,0 L 8.2,6.31 7.02,7.5 8.43,8.91 9.62,7.72 l 1.2,1.2 -1.9,1.9 z m 11.23,7.44 -1.19,1.19 1.41,1.41 1.19,-1.19 1.27,1.27 -1.9,1.9 -3.89,-3.89 1.9,-1.9 z M 6.41,19 H 5 v -1.41 l 9.61,-9.61 1.3,1.3 0.11,0.11 z m 9.61,-12.44 1.41,-1.41 1.41,1.41 -1.41,1.41 z"
         id="path8"
         style="fill:#ff00ff" />
    </g>
  </g>
</svg>
